# xmcd
#
# Track frame offsets: 
#        150
#        14999
#        128869
#        166712
#        201128
#        242942
#        274391
#        292841
#
# Disc length: 4614 seconds
#
# Revision: 0
# Processed by: cddbd v1.5.2PL0 Copyright (c) Steve Scherf et al.
# Submitted via: ExactAudioCopy v1.3
#
DISCID=76120408
DTITLE=Stevie Ray Vaughan and Buddy Guy - Birthday Jam
DYEAR=1992
DGENRE=Blues Rock
TTITLE0=Still Got The Blues
TTITLE1=Blues Jam
TTITLE2=Scuttle Buttin'
TTITLE3=Leave My Girl Alone
TTITLE4=Worry, Worry
TTITLE5=The Things That I Used To Do
TTITLE6=Pride And Joy
TTITLE7=Tin Pan Alley
EXTD=
EXTT0=
EXTT1=
EXTT2=
EXTT3=
EXTT4=
EXTT5=
EXTT6=
EXTT7=
PLAYORDER=
